<svg width="55" height="56" viewBox="0 0 55 56" fill="none" xmlns="http://www.w3.org/2000/svg">
<path d="M34.5112 33.8982H24.3943C24.3943 33.8982 24.22 27.37 17.8158 27.37C11.4117 27.37 10.7639 34.4056 10.7639 37.337C10.7639 40.2684 11.5121 47.3787 17.8409 47.3787C24.1698 47.3787 24.4696 41.0181 24.4696 41.0181H34.5607C34.5607 41.0181 34.5017 56 17.8158 56C1.13002 56 0 41.5351 0 37.337C0 33.139 1.38556 18.7479 17.2804 18.7479C33.1752 18.7479 34.5112 30.3797 34.5112 33.8982Z" fill="black"/>
<path d="M38.1753 8.27644H29.8989V16.5529H38.1753V8.27644Z" fill="black"/>
<path d="M46.451 0H38.1746V8.27644H46.451V0Z" fill="#FFBD52"/>
<path d="M46.451 8.27644H38.1746V16.5529H46.451V8.27644Z" fill="black"/>
<path d="M54.7274 8.2757H46.451V16.5521H54.7274V8.2757Z" fill="black"/>
<path d="M46.451 16.5558H38.1746V24.8323H46.451V16.5558Z" fill="black"/>
</svg>
