<svg width="32" height="26" viewBox="0 0 32 26" fill="none" xmlns="http://www.w3.org/2000/svg">
<path d="M0.515707 14.2311C0.487986 14.1919 0.461525 14.1514 0.436325 14.1114C0.412806 14.074 0.390547 14.0366 0.368708 13.9987C0.346027 13.9583 0.325027 13.9173 0.304028 13.8764C0.283867 13.8359 0.264128 13.795 0.246067 13.7541C0.228006 13.7136 0.211206 13.6731 0.195665 13.6322C0.178865 13.5887 0.162907 13.5455 0.148207 13.5015C0.134766 13.4606 0.122166 13.4197 0.110405 13.3788C0.097805 13.3335 0.0856247 13.2886 0.0751247 13.2428C0.0658855 13.201 0.057066 13.1597 0.0490856 13.1179C0.0406857 13.0721 0.0331268 13.0263 0.0264053 12.9801C0.0205269 12.9375 0.016325 12.8952 0.012125 12.8525C0.00792503 12.8068 0.00456619 12.761 0.00288582 12.7153C0.000785828 12.6717 -5.53131e-05 12.6281 -5.53131e-05 12.5841C-5.53131e-05 12.5393 0.000785828 12.4939 0.00288582 12.4491C0.00498581 12.4046 0.00834465 12.3602 0.012125 12.3162C0.0159035 12.2722 0.0209465 12.2277 0.0268269 12.1833C0.0331268 12.1393 0.040266 12.0953 0.048666 12.0513C0.057066 12.0073 0.065464 11.9633 0.0755444 11.9197C0.0852051 11.8766 0.0969658 11.8344 0.108727 11.7917C0.121326 11.7473 0.134766 11.7033 0.149046 11.6597C0.162485 11.6192 0.177185 11.5792 0.192724 11.5396C0.209944 11.4943 0.228006 11.4498 0.247746 11.4054C0.264126 11.3684 0.281767 11.3319 0.299826 11.2958C0.322927 11.2501 0.346445 11.2047 0.372065 11.1599C0.390965 11.1269 0.410706 11.0943 0.430864 11.0617C0.459425 11.016 0.489668 10.9707 0.520746 10.9262C0.542168 10.8963 0.564426 10.8668 0.586685 10.8373C0.620707 10.7929 0.655565 10.7502 0.692526 10.708C0.704285 10.6943 0.714367 10.6798 0.726545 10.6662L9.58435 0.870022C10.5949 -0.247138 12.2786 -0.294658 13.3454 0.763542C14.4118 1.82218 14.4568 3.58614 13.4467 4.7033L8.84179 9.79542H28.5574C30.0266 9.79542 31.2173 11.0428 31.2173 12.5819C31.2173 14.1211 30.0266 15.3689 28.5574 15.3689H8.84221L13.4467 20.4619C14.4568 21.5791 14.4118 23.3426 13.345 24.4012C12.2786 25.4599 10.5949 25.4119 9.58435 24.2947L0.726545 14.4986C0.712267 14.4827 0.700087 14.4651 0.685806 14.4493C0.653887 14.4119 0.623226 14.3745 0.593405 14.3358C0.566526 14.3015 0.540907 14.2667 0.515707 14.2311Z" fill="#4D4D4D"/>
</svg>
