<?xml version="1.0" encoding="UTF-8"?>
<svg id="Layer_1" xmlns="http://www.w3.org/2000/svg" version="1.1" viewBox="0 0 740.99 758.23">
  <!-- Generator: Adobe Illustrator 29.4.0, SVG Export Plug-In . SVG Version: 2.1.0 Build 152)  -->
  <defs>
    <style>
      .st0 {
        display: none;
        fill: #fff;
      }

      .st1 {
        fill: #ffbd52;
      }
    </style>
  </defs>
  <rect class="st0" x="-91" y="-19" width="955" height="819"/>
  <path d="M438.07,434.87h-95.64s-1.65-61.72-62.19-61.72-66.67,66.51-66.67,94.22,7.07,94.93,66.9,94.93,62.67-60.13,62.67-60.13h95.4s-.56,141.63-158.3,141.63-168.42-136.75-168.42-176.43,13.1-175.73,163.36-175.73,162.89,109.96,162.89,143.23h0Z"/>
  <rect x="394.46" y="192.66" width="78.24" height="78.24"/>
  <rect class="st1" x="472.7" y="114.41" width="78.24" height="78.24"/>
  <rect x="472.7" y="192.66" width="78.24" height="78.24"/>
  <rect x="550.94" y="192.65" width="78.24" height="78.24"/>
  <rect x="472.7" y="270.93" width="78.24" height="78.24"/>
</svg>